<svg width="211" height="81" viewBox="0 0 211 81" fill="none" xmlns="http://www.w3.org/2000/svg">
<style>
  /* sRGB color. */
  :root {
    --orange: rgb(255, 129, 0);
  }

  /* Display-P3 color, when supported. */
  @media (color-gamut: p3) {
    :root {
      --orange: color(display-P3 1 0.5373 0.1922);
    }
  }

  path {
    fill: var(--orange);
  }
</style>
<path d="M75.6638 12.0713C76.8252 12.938 78.2218 13.4328 79.6698 13.4904C81.1307 13.4904 82.8198 12.9844 84.4557 11.2077L84.7677 10.8273L84.802 10.7855L84.8361 10.7436L85.1481 10.3632C88.8308 5.41747 84.3606 1.65874 84.315 1.61309C84.2693 1.56743 79.704 -2.06579 75.523 2.47664L75.2149 2.85708L75.1768 2.89892L75.1388 2.94462L74.8307 3.32506C71.148 8.28217 75.6182 12.0333 75.6638 12.0713Z" fill="currentColor"/>
<path d="M203.545 68.8749C200.205 63.138 198.118 56.7589 197.42 50.1574C196.694 43.4426 197.953 36.7203 194.605 30.4659C185.071 12.6804 159.224 25.25 148.424 34.9322C143.881 39.0029 139.571 43.3703 135.329 47.7416C132.856 50.2943 121.021 62.6205 119.967 63.72C120.614 52.3829 127.576 37.7741 132.27 29.1001C133.75 26.5131 135.188 24.0174 136.234 22.2065C136.234 22.1875 136.291 22.1 136.341 22.0049C136.478 21.7766 136.554 21.6587 136.554 21.6587H136.425C136.451 21.6168 136.474 21.5902 136.485 21.5902H119.084L78.9746 63.9825C79.3779 56.7541 79.7355 49.4839 79.9561 42.229C80.1502 36.2865 81.2724 28.4761 76.2202 24.162C66.287 15.6782 50.7309 28.4647 43.3542 35.073C38.8117 39.1436 34.5051 43.5111 30.2594 47.8861C27.6724 50.5492 14.825 63.9368 14.825 63.9368C14.8198 61.8739 14.9827 59.814 15.312 57.7775C16.537 51.0666 18.7055 44.2301 22.0153 38.2382C24.298 34.0534 28.7148 26.3837 31.1002 22.2598C31.1841 22.0645 31.2901 21.8794 31.416 21.7081H15.6278C10.9674 30.2794 7.60432 39.0105 4.59505 48.3084C2.01949 56.2482 -1.37403 67.4635 3.35482 75.2206C10.781 87.3947 25.4202 72.8239 31.5643 66.7597C39.6334 58.7933 57.5255 36.8458 66.3174 34.624C65.6326 44.8654 64.7956 55.065 64.7956 65.3444C64.7956 65.4091 64.7956 65.4776 64.7956 65.5423C64.7956 65.6069 64.7956 65.6298 64.7956 65.6678C64.7576 72.3293 66.7777 80.0446 74.649 80.0446C86.0849 80.0446 98.1106 63.5868 100.933 60.4444L108.542 51.8731C107.709 55.1791 107.58 55.9666 107.374 56.8911C106.085 62.6661 105.126 69.6928 108.417 75.0913C108.895 75.889 109.463 76.6294 110.11 77.2978C117.878 85.3707 130.973 72.3521 136.691 66.6988C143.539 59.946 150.006 51.0818 157.699 44.1959C158.38 43.6252 159.076 43.0545 159.795 42.5219C162.165 40.7301 168.283 36.5224 173.917 34.6088C174.845 34.3425 175.796 34.1143 176.762 33.9316L176.785 33.848C180.498 33.1708 183.633 34.0001 184.736 37.9224C184.736 37.9224 171.836 41.7801 163.333 49.6133C158.098 54.4373 153.677 60.646 152.681 67.8059C152.042 72.4244 155.37 77.0696 159.529 78.8386C166.803 81.9354 174.008 78.812 180.27 75.0342C180.852 74.6842 187.765 70.4119 187.54 70.001C190.397 75.2739 193.407 80.0331 193.407 80.0331C193.407 80.0331 207.81 80.1207 210.199 80.0331C209.473 78.9185 206.319 73.6266 203.545 68.8749ZM166.106 67.9048C166.106 67.9048 167.845 55.2552 184.478 50.3666C184.478 50.3666 185.452 63.4271 166.106 67.9048Z" fill="currentColor"/>
</svg>
